<svg width="28" height="28" viewBox="0 0 28 28" fill="none" xmlns="http://www.w3.org/2000/svg">
<g clip-path="url(#clip0_1190_79160)">
<path opacity="0.3" d="M20.9997 16.3333C19.0667 16.3333 17.4997 14.7663 17.4997 12.8333C17.4997 10.9003 19.0667 9.33333 20.9997 9.33333C22.9327 9.33333 24.4997 10.9003 24.4997 12.8333C24.4997 14.7663 22.9327 16.3333 20.9997 16.3333ZM10.4997 12.8333C7.92235 12.8333 5.83301 10.744 5.83301 8.16667C5.83301 5.58934 7.92235 3.5 10.4997 3.5C13.077 3.5 15.1663 5.58934 15.1663 8.16667C15.1663 10.744 13.077 12.8333 10.4997 12.8333Z" fill="#0A0A0A"/>
<path d="M20.5347 17.5008C24.509 17.5442 27.754 19.5536 27.9982 23.8001C28.0081 23.9711 27.9982 24.5001 27.3653 24.5001H22.8667C22.8667 21.874 21.999 19.4506 20.5347 17.5008ZM0.000760298 23.5658C0.452968 17.9977 4.97223 15.1667 10.4806 15.1667C16.0664 15.1667 20.6557 17.8421 20.9976 23.5667C21.0112 23.7948 20.9976 24.5001 20.1211 24.5001C15.798 24.5001 9.37385 24.5001 0.848753 24.5001C0.556164 24.5001 -0.023872 23.8691 0.000760298 23.5658Z" fill="#0A0A0A"/>
</g>
<defs>
<clipPath id="clip0_1190_79160">
<rect width="28" height="28" fill="white"/>
</clipPath>
</defs>
</svg>
