<svg width="20" height="20" viewBox="0 0 20 20" fill="none" xmlns="http://www.w3.org/2000/svg">
<g clip-path="url(#clip0_2842_32895)">
<path opacity="0.3" d="M17.0833 11.667C17.7736 11.667 18.3333 11.1073 18.3333 10.417C18.3333 9.72664 17.7736 9.16699 17.0833 9.16699C16.3929 9.16699 15.8333 9.72664 15.8333 10.417C15.8333 11.1073 16.3929 11.667 17.0833 11.667Z" fill="#FF9634"/>
<path opacity="0.3" d="M15.6847 0.873436L2.80567 4.32436C2.36112 4.44347 2.0973 4.90042 2.21641 5.34498L3.29483 9.36967C3.41395 9.81422 3.87089 10.078 4.31545 9.95892L17.1945 6.508C17.639 6.38889 17.9028 5.93194 17.7837 5.48738L16.7053 1.46269C16.5862 1.01814 16.1292 0.754318 15.6847 0.873436Z" fill="#FF9634"/>
<path fill-rule="evenodd" clip-rule="evenodd" d="M18.3334 7.78035C17.9546 7.60038 17.5307 7.49967 17.0834 7.49967C15.4726 7.49967 14.1667 8.80551 14.1667 10.4163C14.1667 12.0272 15.4726 13.333 17.0834 13.333C17.5307 13.333 17.9546 13.2323 18.3334 13.0523V14.9997C18.3334 15.9201 17.5872 16.6663 16.6667 16.6663H3.33341C2.41294 16.6663 1.66675 15.9201 1.66675 14.9997V4.99967C1.66675 4.0792 2.41294 3.33301 3.33341 3.33301H16.6667C17.5872 3.33301 18.3334 4.0792 18.3334 4.99967V7.78035Z" fill="#FF9634"/>
</g>
<defs>
<clipPath id="clip0_2842_32895">
<rect width="20" height="20" fill="white"/>
</clipPath>
</defs>
</svg>
